<?xml version="1.0" encoding="UTF-8" standalone="no"?>
<svg
   version="1.1"
   width="841.88977pt"
   height="595.27557pt"
   id="svg6"
   viewBox="0 0 841.88977 595.27557"
   sodipodi:docname="metro-turizm-seeklogo.cdr"
   xmlns:inkscape="http://www.inkscape.org/namespaces/inkscape"
   xmlns:sodipodi="http://sodipodi.sourceforge.net/DTD/sodipodi-0.dtd"
   xmlns="http://www.w3.org/2000/svg"
   xmlns:svg="http://www.w3.org/2000/svg">
  <defs
     id="defs10" />
  <sodipodi:namedview
     id="namedview8"
     pagecolor="#ffffff"
     bordercolor="#000000"
     borderopacity="0.25"
     inkscape:showpageshadow="2"
     inkscape:pageopacity="0.0"
     inkscape:pagecheckerboard="0"
     inkscape:deskcolor="#d1d1d1"
     inkscape:document-units="pt" />
  <path
     d="m 225.9541,421.5912 19.3457,-94.9234 h 55.3616 l -0.4116,56.284 22.8443,-56.284 h 52.8919 l -19.3456,94.9234 h -32.5172 l 14.2005,-67.8982 -29.6359,67.8982 h -34.9869 l -1.6464,-67.8982 -13.5832,67.8982 z m 149.6203,0 19.3457,-94.9234 h 75.5305 l -4.9393,24.345 h -37.4566 l -2.058,10.4975 h 34.7811 l -4.9394,24.345 h -34.781 l -2.2639,11.1675 h 38.6914 l -4.9393,24.5684 z m 192.0162,-94.9234 -5.1451,25.4618 h -24.285 l -14.2006,69.4616 h -38.8971 l 14.2005,-69.4616 h -24.4908 l 5.1451,-25.4618 z m 40.7494,39.3094 h 1.0291 1.6464 c 4.3219,0 8.0264,-0.67 10.7019,-2.4568 2.8812,-1.5635 4.5277,-4.0203 5.1451,-7.1472 0.6174,-3.1269 0,-5.137 -1.6464,-6.4771 -1.6465,-1.3401 -4.7336,-2.0102 -8.8497,-2.0102 h -2.6754 -1.6465 z m -49.3932,55.614 19.3457,-94.9234 h 51.4513 c 15.2296,0 25.314,1.7867 30.6649,5.5837 5.351,3.5736 6.9974,9.8274 5.1452,18.538 -1.0291,5.8071 -3.7045,10.4974 -7.8206,14.071 -3.9103,3.7969 -9.4671,6.4771 -16.4644,8.0406 5.9683,0.8934 9.8786,2.9035 11.9367,5.807 2.058,2.9036 2.8812,8.264 2.2638,15.8579 l -0.6174,10.274 c -0.2058,0.8934 -0.4116,1.7868 -0.4116,3.1269 0,1.1168 0,2.2335 0,3.3503 l 0.2058,10.274 h -38.2798 l -0.4116,-7.5939 v -5.5837 l 0.4116,-6.9238 c 0.4117,-6.2538 0,-10.2741 -1.2348,-11.8375 -1.2348,-1.7868 -3.9103,-2.4569 -7.6148,-2.4569 h -2.058 c -0.6174,0 -1.2349,0 -1.4407,0 l -6.9973,34.3958 z m 152.2958,1.5635 c -15.847,0 -27.1663,-4.2437 -34.3694,-12.7309 -6.9974,-8.4873 -8.8497,-20.5482 -5.7626,-36.1826 3.0871,-15.6345 10.0845,-27.6954 20.7863,-36.1826 10.7019,-8.7107 24.0792,-12.9543 40.5436,-12.9543 16.2586,0 27.9895,4.2436 35.1927,12.9543 7.2032,8.4872 9.0554,20.5481 5.9684,36.1826 -3.2929,15.8578 -10.2903,27.9186 -20.7864,36.4059 -10.7018,8.2639 -24.4908,12.5076 -41.5726,12.5076 z m 16.0528,-73.2586 c -3.9103,0 -7.2032,1.5634 -9.6728,5.137 -2.2639,3.5736 -4.5277,10.0507 -6.38,19.6548 -1.8522,8.7106 -2.2638,14.9644 -1.4406,18.538 1.029,3.5735 3.4987,5.3603 7.409,5.3603 4.1161,0 7.2031,-1.7868 9.6728,-5.5837 2.4697,-3.7969 4.7335,-10.4974 6.7916,-20.1014 1.6464,-8.7107 2.058,-14.7411 1.029,-18.0913 -0.8232,-3.3503 -3.2929,-4.9137 -7.409,-4.9137 z"
     style="fill:#102a83;fill-rule:evenodd"
     id="path2" />
  <path
     d="m 124.047,458.4528 c 46.4437,0 84.3233,-37.8796 84.3233,-84.3233 0,-37.1235 -24.2031,-68.7725 -57.6356,-79.9806 0.3063,0.2242 1.0007,0.7867 1.3235,1.2063 0.3643,0.4736 -0.6194,0.4372 -0.6194,0.4372 l 0.2915,0.2914 c 0,0 0.6193,0.3644 1.0201,0.6923 0.4008,0.3279 0.2186,0.8015 0.2186,0.8015 l -0.8015,0.6558 0.1821,1.3845 -0.2186,0.255 0.6194,1.8582 c 0,0 -0.3279,0.5829 -0.5101,0.9108 -0.1821,0.3279 -1.4573,0 -1.4573,0 l -0.2915,0.4737 1.093,0.8379 -0.6558,0.6558 -0.1093,0.8016 c 0,0 -1.5302,0.7287 -1.6759,0.9473 -0.1458,0.2186 0,1.7123 0,1.7123 l -1.3481,0.2915 c 0,0 -1.4209,0.8016 -1.6031,0.8744 -0.1821,0.0729 -1.4209,-0.2914 -1.4209,-0.2914 v 0.3643 l -1.5302,0.1093 -0.7651,-0.7651 -1.4209,-0.3279 -0.2186,-0.9837 -0.5101,-0.3279 c 0,0 -0.838,-0.838 -1.0202,-1.0202 -0.1821,-0.1821 0.2551,-1.3116 0.2551,-1.3116 l -0.838,-0.8744 0.5101,-0.838 -0.4008,-0.5101 0.8016,-0.4736 -0.3644,-0.7287 0.0729,-0.6558 0.0364,-0.838 h 0.2551 l 0.1093,-0.6922 0.4372,-0.7287 0.1821,-0.5465 0.9109,-0.51 c 0,0 -0.2915,-1.421 -0.3644,-1.6031 -0.0728,-0.1822 1.931,-1.2023 1.931,-1.2023 l -0.2914,-1.0202 1.4209,0.0364 0.5611,-1.1623 c -6.562,-1.6481 -13.4231,-2.5285 -20.484,-2.5285 -46.4437,0 -84.3234,37.8796 -84.3234,84.3233 0,22.5598 8.9385,43.0986 23.4546,58.2563 -0.0348,-0.6154 -0.0842,-1.2504 -0.1482,-1.5063 -0.1404,-0.5616 -0.0702,-1.8953 0,-2.5271 0.0702,-0.6318 -0.6318,-0.702 -1.1934,-1.1934 -0.5616,-0.4914 1.404,-0.702 1.404,-0.702 l -0.702,-1.8953 1.053,-0.351 0.0702,-0.702 -0.6318,-1.1232 0.702,-0.9827 c 0,0 -0.351,-1.1232 -0.702,-1.3338 -0.351,-0.2106 1.053,-0.6318 1.053,-0.6318 l -0.5616,-1.404 0.9125,-0.7721 -0.7019,-1.6146 1.4741,-0.2106 -0.702,-1.6146 0.7722,-0.5615 -0.8424,-1.2636 1.1934,-0.1404 1.5444,-0.4212 -2.3166,-1.3338 -0.0702,-1.1231 2.0358,0.7722 0.1404,-1.1232 0.9126,-1.6848 -0.8424,-0.1404 -0.2808,1.2636 c 0,0 -0.4914,0.1404 -0.9828,0.1404 -0.4914,0 0.4212,-1.6848 0.4212,-1.6848 l 2.1059,-2.2463 0.702,-1.053 h -1.8953 c 0,0 0.5616,-0.9126 0.9126,-1.053 0.3509,-0.1404 1.1231,-0.9125 1.1231,-0.9125 l -0.4212,-0.702 c 0,0 -1.2635,0.702 -1.5443,1.053 -0.2808,0.3509 -0.4212,-0.8424 -0.4212,-0.8424 l 0.702,-0.351 0.9827,-0.5616 0.7722,0.4212 0.9828,-0.9828 c 0,0 0.6318,-1.1934 0.7722,-1.6145 0.1404,-0.4212 -0.8424,0 -0.8424,0 l 1.053,-2.0358 0.8424,-0.8424 -0.8424,-1.1231 0.5616,-0.5616 0.0702,-1.4742 0.7019,-0.4212 -0.3509,-0.7722 -1.2636,0.351 -0.7722,-0.9125 c 0,0 0.4212,0 0.8424,0.2105 0.4212,0.2106 1.1934,-0.0702 1.1934,-0.0702 l 0.9125,-1.0529 c 0,0 -0.2106,-0.4914 -0.5616,-0.702 -0.3509,-0.2106 -1.1231,-0.4914 -1.1231,-0.4914 0,0 0.4212,-0.6318 0.7722,-0.6318 0.3509,0 0.4211,0.2808 0.9827,0.351 0.5616,0.0702 0.7722,-0.1404 1.1934,-0.2808 0.4212,-0.1404 -0.1404,-0.702 -0.1404,-0.702 0,0 -0.351,0.0702 -0.8424,0.0702 -0.4914,0 -0.6318,-0.4212 -0.6318,-0.4212 0,0 -0.2106,-0.4913 -0.2808,-0.9125 -0.0702,-0.4212 0.351,0 0.8424,0 0.4914,0 1.1934,0.0702 1.5444,-0.0702 0.351,-0.1404 -0.0702,-0.702 -0.0702,-0.702 l -0.9126,-0.6318 c 0,0 -0.2106,0 -0.702,-0.1404 -0.4914,-0.1404 0.351,-0.702 0.351,-0.702 l 0.0702,-0.7722 0.4212,0.0702 0.6318,0.7722 0.4914,-0.1404 -0.0702,-1.2635 c 0,0 0.351,0 0.702,0 0.351,0 0.6317,-1.1934 1.0529,-1.4742 0.4212,-0.2808 -0.8423,-0.5616 -0.8423,-0.5616 l 0.2808,-0.9828 1.3337,-0.351 c 0,0 -0.7722,-0.9125 -0.8424,-1.3337 l 1.1934,-0.702 -0.5616,-0.9126 0.4914,-0.7722 1.2636,0.0702 0.9828,-0.9827 -1.4742,-1.6848 0.1404,-0.351 h 0.8424 l 0.1404,-0.7722 -0.4212,-1.1231 1.0529,0.0702 0.6318,-1.2636 1.053,0.5616 c 0,0 0.351,-1.5444 0.4212,-1.9656 0.0702,-0.4212 -0.8424,-0.2808 -0.8424,-0.2808 v -0.7019 h 1.8252 l 1.4039,-1.8252 -0.5616,-2.1761 -0.1403,-0.9828 -0.0702,-1.1934 -0.0702,-0.9828 1.4039,-1.6145 1.4742,-0.7722 c 0,0 0.2808,-1.404 0.2808,-0.9828 0,0.4212 0,-0.8424 0,-0.8424 0,0 0.5616,-0.2106 0.9126,-0.4212 0.3509,-0.2105 1.0529,-0.2105 1.0529,-0.2105 l -0.0702,-0.6318 -1.4741,-0.0702 c 0,0 0,-0.351 0.2808,-0.6318 l 1.3337,-0.9126 1.3338,-1.2636 -0.7722,-0.8423 0.4914,-0.702 0.4914,-0.4914 0.9828,0.702 0.9125,-0.4212 -0.1404,-1.1934 0.1404,-1.053 h -0.5615 l -0.351,-0.8423 0.7019,-0.5616 0.8424,1.4039 0.7722,-0.3509 0.7722,-0.9126 -0.2106,-0.6318 -1.1232,-0.0702 0.0702,-0.4914 h 0.5616 l 1.053,-1.053 -0.0702,-1.6847 1.1232,0.6318 0.7019,-0.4914 -0.4212,-0.4914 0.0702,-1.1934 c 0,0 0.4212,-0.4212 0.7722,-0.4914 0.351,-0.0702 0.351,0.8424 0.351,0.8424 l 1.1232,0.7722 0.4212,-0.6318 -0.5616,-0.8424 0.5616,-0.9828 -0.6318,-0.4211 v -0.5616 l 2.0357,-0.6318 0.2808,0.5616 h 0.6318 l 0.6318,-0.9828 -0.9126,-1.5444 0.351,-0.351 1.053,0.4914 1.1232,-0.0702 1.1933,0.6318 0.6318,-0.2106 -0.351,-0.8424 1.404,0.2106 0.5616,-0.5615 0.4914,0.2807 -0.4914,0.702 2.9483,0.7722 1.2636,-0.5616 0.4914,0.4212 -0.9126,0.702 0.5616,0.702 0.5616,-0.2808 1.6847,-0.0702 -0.4212,0.8424 1.8252,0.7019 0.4212,-0.3509 0.5616,0.4211 -0.8424,0.7722 1.9655,-0.0702 0.5616,0.5616 -0.9828,0.2106 1.053,0.6318 -0.9828,0.7722 1.1232,0.0702 1.053,1.1933 -0.4212,1.2636 1.2636,0.2106 v 0.9126 l 0.7019,0.8424 -0.7721,1.1231 0.9125,0.351 -0.4212,0.5616 v 0.6318 l 0.7722,-0.4212 0.4212,0.4914 -1.1232,0.5616 -0.0702,0.6318 1.053,0.2106 -0.0702,0.3509 -0.4914,0.1404 0.351,0.8424 0.4914,0.4212 -0.9828,0.702 0.2808,0.7722 0.7722,-0.4212 0.5616,1.1934 -0.1404,0.4913 0.4212,0.4914 c 0,0 -1.053,0.7722 -1.1934,1.1934 l 0.7722,0.0702 0.1404,0.351 -0.5616,0.351 0.0702,0.8424 0.9126,0.2106 -0.5616,0.9125 0.9828,0.2106 -0.1404,0.702 -0.6318,-0.1404 -0.2808,0.5616 1.6146,0.702 0.2106,2.0357 0.9125,1.1934 c 0,0 -1.1231,0.7722 -1.5443,1.1232 -0.4212,0.351 -0.4914,1.5443 -0.4914,1.5443 l 0.5616,0.7722 1.1231,-0.351 0.2808,0.5616 -0.7721,0.4212 0.1404,0.5616 0.9827,-0.1404 0.351,0.4914 -1.4741,0.4212 -0.0702,0.4913 2.1059,0.4914 c 0,0 -0.6318,1.2636 -0.9828,1.5444 -0.351,0.2808 0.4212,1.3338 0.4212,1.3338 l -0.351,1.1231 0.9828,0.6318 0.4212,1.2636 -1.1934,1.1934 c 0,0 0.702,0.2106 1.1934,0.2106 0.4914,0 -0.4914,0.7721 -0.4914,0.7721 l 1.1232,0.2808 0.2808,0.5616 -1.5444,0.1404 0.2106,0.9126 c 0,0 0.4914,0.4914 0.9126,0.4914 0.4212,0 -0.702,0.8424 -0.702,0.8424 l 2.1761,-0.0702 0.5616,-0.351 c 0,0 -0.0702,-0.8424 0.1404,-1.3338 0.2106,-0.4914 -0.4914,-1.1934 -0.4914,-1.1934 l 1.755,-1.6145 -0.9126,-3.0888 0.9828,-0.4913 0.6318,-1.9656 -1.3338,-1.1232 1.053,-0.0702 -0.2106,-0.8423 0.7722,-0.351 0.4212,-1.053 0.8423,-1.3338 -0.351,-0.1404 0.4914,-0.6318 -0.8423,-0.0702 0.4913,-0.7721 c 0,0 0.351,-0.9126 0.4212,-1.3338 0.0702,-0.4212 1.053,0.7722 1.053,0.7722 l 0.0702,-1.9656 -0.5616,-0.702 1.404,-0.5615 c 0,0 0,-0.5616 0,-0.9828 0,-0.4212 0.2106,-0.5616 0.2106,-0.5616 l -1.6146,0.4914 -0.2808,-0.4914 1.6848,-1.3338 c 0,0 0.2808,-0.1404 0.1404,-0.7019 -0.1404,-0.5616 0.9828,-0.5616 0.9828,-0.5616 l 0.0702,-0.9828 -1.1232,-0.4914 1.5443,-1.4742 0.8424,-0.3509 0.2106,-0.9828 -0.9828,0.0702 -0.5615,0.4914 -0.0702,-1.3338 1.7549,-0.351 0.2106,-0.8424 -0.5616,-0.351 0.351,-0.6317 h 0.8424 l 1.1232,-2.106 -0.9828,-0.1404 0.2808,-0.4212 1.1934,-0.4212 -0.4212,-0.6318 -0.8424,-0.0702 0.2106,-1.1933 1.9655,-0.6318 -0.0702,-1.1232 -1.0529,0.2106 v -0.6318 l 0.4913,-0.5616 0.5616,-0.5615 -0.7721,-0.0702 -0.1404,-0.6318 1.1933,-0.1404 0.5616,-0.702 -0.8424,-0.8424 0.8424,-0.5616 c 0,0 -0.1404,-0.0702 0.4212,0.0702 0.5616,0.1404 1.404,-0.0702 1.404,-0.0702 l -0.2106,-1.9655 0.4212,-0.2106 0.2808,-0.5616 -0.7722,-0.2808 0.4914,-1.053 v -0.9125 l -0.4914,-0.2106 -0.1404,-0.8424 1.1933,-0.4212 0.5616,0.8424 0.6318,-1.755 0.2106,-1.3337 2.3868,-1.053 -0.1404,-0.5616 -2.3166,0.1404 0.0702,-0.6318 2.5271,-0.5616 0.7722,-1.1232 -0.4212,-0.4913 0.2106,-0.5616 2.0358,-0.4914 v -0.702 l -1.755,0.1404 0.4914,-1.1934 0.9828,-0.7721 0.2808,-0.8424 -0.351,-0.2808 0.1404,-0.4914 h 0.7722 l 1.1933,-1.6146 0.2106,-0.7019 h -0.351 l -0.1404,-0.8424 -0.1404,-0.5616 -0.3509,-0.0702 v -0.4212 l 0.7721,-0.2106 0.4212,0.9828 1.1232,-0.1404 0.4914,-0.6318 -0.4212,-0.2808 -0.4914,-0.4914 0.2808,-0.4914 c 0,0 -1.053,0.1404 -1.755,0 l 1.8252,-0.8423 -0.2808,-1.053 0.351,0.0702 0.7722,1.8251 1.1232,-0.1404 0.9125,-0.7019 -1.4039,-0.702 0.5616,-0.7722 0.8423,-0.6318 c 0,0 0.8424,0 1.3338,-0.0702 0.4914,-0.0702 0.5616,1.053 0.7722,1.404 0.2106,0.351 0.0702,0 0.9828,-0.4212 0.9125,-0.4212 4.2118,0.702 4.2118,0.702 l -0.0702,0.4914 0.7722,1.1933 1.4742,0.8424 -0.5616,0.7722 h 1.5444 l 0.2106,0.6318 0.6317,0.7721 0.8424,-0.3509 c 0,0 -0.0702,1.0529 -0.1404,1.4039 -0.0702,0.351 0.7722,0.0702 0.7722,0.0702 l -0.0702,0.8424 c 0,0 0.4212,0.4212 1.1934,0.9126 0.7722,0.4914 0.0702,1.3337 0.0702,1.3337 l 1.1232,-0.0702 0.0702,0.9828 0.8423,0.4212 -0.8423,0.5616 0.9125,0.9126 v 0.4212 l 1.1934,1.4741 -0.4914,0.4212 -0.8424,-0.702 -0.5616,0.5616 c 0,0 0.4914,0.7722 0.8424,1.1934 0.351,0.4212 0.4212,0.351 0.5616,0.702 0.1404,0.351 0.351,0.9125 0.351,0.9125 0,0 0.0702,0.0702 0.9126,0.9126 0.8424,0.8424 0.1404,0.5616 0.4914,1.1934 0.351,0.6318 0.4914,0.6318 0.4212,1.404 -0.0702,0.7721 -0.2808,0.2105 -0.8424,-0.351 -0.5616,-0.5616 -0.351,0.2808 -0.9828,0.5615 -0.6318,0.2808 -0.5616,0.5616 -0.5616,0.5616 0,0 0.2106,0 1.1934,0.1404 0.9828,0.1404 0,0.1404 -0.1404,0.5616 -0.1404,0.4212 0.2106,0.0702 0.702,0 0.4914,-0.0702 0.9125,0.4212 0.9125,0.4212 0,0 -0.2105,0.351 -0.2105,0.8424 0,0.4914 0.4913,0.2808 0.6317,0.6318 0.1404,0.351 -0.5615,0.9125 -0.5615,0.9125 0,0 -0.2106,0.8424 0,1.4742 0.2105,0.6318 1.5443,0.2808 1.5443,0.2808 l -0.0702,0.6318 h -0.7722 l -1.1933,0.6318 c 0,0 0.1404,0.4212 0.4914,0.702 0.3509,0.2807 0.2807,0.3509 0.4913,0.7721 0.2106,0.4212 0.0702,0.6318 -0.2808,0.9126 -0.3509,0.2808 0.1404,0.8424 0.5616,1.404 0.4212,0.5616 0.702,0 1.2636,-0.2808 0.5616,-0.2808 0.2106,-0.7722 0.2808,-1.2636 0.0702,-0.4914 0.7722,-0.702 0.7722,-0.702 0,0 0.702,-0.8423 0.8424,-1.4741 0.1404,-0.6318 -0.4914,-0.8424 -0.4914,-0.8424 l 0.4914,-0.4212 0.9125,-0.0702 c 0,0 0.2808,-1.8954 -0.2106,-0.8424 -0.4914,1.053 0,-1.1231 0.7722,-1.7549 0.7722,-0.6318 1.404,-1.053 1.404,-1.053 l -0.702,-0.351 -0.351,-1.6146 0.1404,-0.3509 c 0,0 0.7722,0.1403 1.1232,0.0702 0.351,-0.0702 0.4914,0.7019 0.4914,0.7019 l 0.6317,-0.1404 v -1.0529 h -0.3509 l -0.0702,-0.351 0.4913,-0.4914 0.4914,-1.1934 c 0,0 -0.4212,-0.8424 -0.2808,-1.3338 0.1404,-0.4913 0.8424,-0.6317 0.8424,-0.6317 v -0.8424 l 0.702,0.351 v 0.702 l -0.0532,-0.0658 h 0.602 l 1.505,-0.301 1.1438,-1.0836 1.0234,0.1806 0.602,-0.8428 1.204,1.1438 -0.602,0.301 -0.0602,0.7826 -0.5418,0.0602 0.1204,0.602 0.9632,0.1204 -0.2408,0.6622 0.602,0.5418 0.2408,0.7826 c 0,0 -1.204,0.4816 -1.7458,0.5418 -0.5418,0.0602 -0.0602,0.3612 -0.0602,0.3612 0,0 1.2642,0 1.806,-0.0602 0.5418,-0.0602 0,0.4816 0,0.4816 0,0 -1.0836,0.301 -1.5652,0.4214 -0.4816,0.1204 -0.6622,0.6622 -0.6622,0.6622 l 1.9866,0.301 0.2408,0.4816 c 0,0 -1.3846,0.602 -1.7458,0.7826 -0.3612,0.1806 0.2408,0.6622 0.2408,0.6622 l 1.1438,0.301 0.0602,0.602 c 0,0 -0.7224,0.3612 -1.0234,0.4816 -0.301,0.1204 0.9632,0.7224 0.9632,0.7224 l -0.2408,0.7826 -1.204,0.0602 -0.1204,1.0234 0.7224,0.7224 -0.4214,0.4214 -1.1438,0.1806 -0.5418,0.602 1.4448,0.4816 0.0602,1.5652 -0.3612,0.3612 -0.903,-0.9632 c 0,0 -0.7826,0.1806 -1.0836,0.1806 -0.301,0 0.602,1.204 0.602,1.204 l 0.5418,1.505 0.9632,0.4214 -0.602,0.5418 0.1204,0.8428 c 0,0 -0.6622,0 -0.9632,0.0602 -0.301,0.0602 -0.7826,0.4214 -0.7826,0.4214 l 0.602,0.4816 0.8428,-0.1204 0.1204,0.7826 -2.1672,1.204 -0.1806,-0.602 c 0,0 -0.7826,0.8428 -1.1438,0.9632 -0.3612,0.1204 1.2642,0.4214 1.2642,0.4214 l -0.3612,0.7826 h 0.7826 l -0.1806,0.602 c 0,0 -0.8428,0.6622 -1.1438,0.6622 -0.301,0 0.0602,0.8428 0.0602,0.8428 l -1.204,0.903 -0.301,1.0234 c 0,0 0.2408,0.7224 0.1806,1.0234 -0.0602,0.301 0.8428,0.1204 0.8428,0.1204 0,0 -1.5652,2.107 -1.6856,2.5284 -0.1204,0.4214 0.6622,0.4816 0.6622,0.4816 l -0.3612,0.8428 -0.8428,-0.7826 -0.301,-0.0602 0.5418,0.8428 -0.6622,0.0602 -0.7224,-0.1204 c 0,0 -0.5418,0.4214 -0.8428,0.5418 -0.301,0.1204 0.3612,0.8428 0.3612,0.8428 l -0.0602,0.4214 -1.1438,0.1204 -0.6622,1.6254 -0.4816,-0.1806 -1.806,0.301 -0.301,0.4816 c 0,0 -1.0234,0.1204 -1.3244,0.1204 -0.301,0 -0.1204,-0.6622 -0.1204,-0.6622 l -0.903,-0.6622 -0.9632,0.4816 c 0,0 -0.4816,-0.6622 -0.903,-1.0234 -0.4214,-0.3612 0.4816,-0.6622 0.4816,-0.6622 l -0.6622,-0.6622 -1.4448,-0.0602 0.4214,-0.903 -0.2408,-0.903 -1.0234,0.301 -1.505,-0.9632 v -0.9632 l 1.204,-0.301 -0.4214,-0.602 -1.7458,0.1204 1.0234,-0.9632 -0.2408,-0.5418 c 0,0 -1.0836,-0.301 -1.3846,-0.3612 -0.301,-0.0602 0.7826,-1.0234 0.7826,-1.0234 l -0.4816,-0.301 h -1.204 l 0.3612,-1.3846 -1.3244,-0.8428 0.602,-1.0836 -0.8428,-1.1438 1.0836,-1.2642 -1.4448,-0.4214 0.4214,-1.0836 c 0,0 -0.0602,-0.0602 -0.6622,-0.1806 -0.602,-0.1204 -0.8428,-0.903 -1.0836,-1.7458 -0.2408,-0.8428 -0.0602,-1.1438 -0.3612,-2.6488 -0.301,-1.505 -0.301,-2.5886 -0.301,-2.5886 l -0.903,-1.204 0.602,-0.7826 -0.7826,-0.6622 0.3612,-1.8662 0.2408,-1.4448 c 0,0 -0.6622,0 -1.0234,0 -0.3612,0 -0.1806,-1.0234 -0.1806,-1.0234 l 0.9632,-0.7826 -0.1204,-0.7224 -0.7826,0.0602 -0.1204,-0.5418 0.5418,-0.7826 -0.7224,0.0602 -1.9866,2.8896 h -0.5418 l -0.4816,1.0836 -0.7826,1.806 h 0.3612 l -0.1806,0.6622 h -1.0234 l -0.0602,1.3846 0.5418,0.6622 -0.4816,0.4816 h -0.7224 l -0.2408,0.7224 0.301,0.4816 -2.107,2.5284 0.2408,1.6254 c 0,0 -1.9866,3.2508 -2.1672,3.5518 -0.1806,0.301 1.1438,0.8428 1.1438,0.8428 l -1.3846,0.602 -1.204,2.3478 0.5418,0.4214 h -0.602 c 0,0 -0.5418,1.3846 -0.7224,1.9866 -0.1806,0.602 0.1806,0.7224 0.0602,1.0234 -0.1204,0.301 -1.505,-0.1204 -1.505,-0.1204 l 0.6622,1.6254 -2.2274,5.1772 0.0602,0.4214 -0.5418,0.4816 c 0,0 0,0.1806 0,0.5418 0,0.3612 -0.4816,2.6488 -0.4816,2.6488 l -1.0234,1.204 -0.0602,1.0836 -1.505,4.214 0.7826,1.1438 -1.3244,0.301 -1.2642,3.4916 -0.3612,0.1806 -0.7224,1.3244 0.3612,1.6254 -1.0836,0.4214 -0.3612,1.8662 0.7224,0.4214 -0.2408,0.602 -0.6622,-0.0602 0.301,1.505 -1.6856,1.4448 -0.0602,3.01 -1.2642,0.7224 0.0602,0.9031 c 0,0 0.3612,0.3612 0.6622,0.6622 0.301,0.301 -1.2642,0.5418 -1.2642,0.5418 l -1.4448,3.4916 1.4448,1.0836 c 0,0 0,0.6622 0,1.0234 0,0.3612 -2.2274,0.5418 -2.5886,0.602 -0.3612,0.0602 -0.3612,0.9632 -0.3612,0.9632 l 0.4214,0.4816 -0.301,0.8428 v 0.8428 l -2.4682,0.5418 -0.602,1.3846 -0.602,0.2408 -0.3612,-1.9264 -1.505,0.4214 -1.505,0.301 -1.505,1.1438 -0.7225,-0.5418 1.7459,-1.505 -0.8428,-0.903 c 0,0 -1.9867,1.5652 -2.2877,1.6254 -0.301,0.0602 -0.0602,-1.4448 -0.0602,-1.4448 h -1.0836 l -0.0602,-1.0836 -0.602,-1.4448 c 0,0 0.6622,-1.1438 0.9632,-1.2642 0.301,-0.1204 -0.4214,-0.7224 -1.0234,-1.1438 -0.602,-0.4214 -0.903,0.301 -0.903,0.301 l -0.1806,-0.7826 0.9632,-0.8428 -1.2642,-1.806 0.1204,-0.6622 -0.1806,-0.4214 -0.4816,0.1204 -0.3612,-0.5418 1.0836,-1.6255 c 0,0 -0.1806,-0.1806 -0.4816,-0.1806 -0.301,0 -1.204,0.4816 -1.204,0.4816 l -0.3612,-1.1438 -0.4214,-0.9632 1.5652,-0.301 -0.5418,-0.602 c 0,0 -0.3612,-0.0602 -0.7224,-0.1204 -0.3612,-0.0602 -0.1806,-0.9632 -0.1806,-0.9632 l 0.301,-1.3244 h -0.4214 c 0,0 -0.301,0.4816 -0.8428,0.4214 -0.5418,-0.0602 0.1806,-0.5418 0.1806,-0.5418 l -0.3047,0.007 0.1001,-0.9013 -0.701,-0.8012 0.6009,-0.3004 0.701,-0.8012 v -1.0014 h -1.6023 l -0.1002,-0.8012 0.6009,-1.0015 -0.9013,-0.6008 -0.5007,-1.5022 1.0014,-0.3005 -0.6008,-0.9013 -1.1017,0.2003 -0.3004,-0.6009 1.3019,-1.1016 -0.5007,-1.402 -0.9013,-0.2003 0.2003,-1.1016 0.6008,-1.8026 -1.2017,-0.4006 0.3004,-1.7025 0.4006,-1.8026 h -0.9013 l -0.1002,-1.3019 v -0.7011 l -1.2017,-0.9013 0.9013,-1.2017 -1.1016,-0.5008 -0.1001,-0.9013 0.2002,-1.402 -0.4005,-1.1016 0.8011,-0.701 -0.9013,-1.0015 -0.5007,-1.402 -0.701,-0.6009 0.701,-1.0015 -0.5007,-1.1016 h 0.8011 l -0.3004,-0.8012 -0.8012,0.1002 -0.6009,-1.3019 0.5008,-0.5007 -0.2003,-0.9014 c 0,0 -0.8012,0.6009 -1.7025,0.8012 -0.9013,0.2003 -1.9028,1.0015 -1.9028,1.0015 l -1.2017,0.4006 c 0,0 -0.2003,1.5021 -0.4006,2.2032 -0.2003,0.701 -1.5022,0 -1.5022,0 l -0.3004,1.402 0.6008,0.2003 0.4006,0.8012 -0.9013,0.3004 -1.2018,1.9028 -0.9013,0.2003 -0.3004,1.7025 -1.7025,1.0014 0.5007,1.6024 -1.1016,0.6008 v 1.3019 l -0.5007,0.1002 -0.4006,2.0029 -1.2017,0.6009 0.6008,0.5007 c 0,0 -1.5022,0.701 -2.0029,1.2018 l 0.6009,0.5007 -0.1002,1.402 -1.1016,0.5008 0.4006,1.0014 -2.2032,4.6067 -0.701,0.7011 0.2003,0.9013 c 0,0 -1.4021,2.7039 -1.9028,3.0044 -0.5007,0.3004 -0.8012,0 -0.8012,0 l 0.8012,1.0014 c 0,0 -2.2032,4.0059 -2.2616,4.5192 l 0.2808,0.5616 -1.3338,1.8953 0.5616,0.7722 -0.8424,0.9126 c 0,0 -0.1404,0.351 -0.1404,0.9827 0,0.6318 -0.9126,1.6848 -0.9126,1.6848 l 0.4212,0.9828 -1.5443,1.2635 0.4212,2.457 -0.6318,-0.351 -0.2106,1.1934 -0.9126,0.9125 0.5616,1.9656 -0.8424,0.6318 -0.1404,1.4039 -0.9126,1.2636 0.4914,1.053 c 0,0 -1.6847,3.5099 -2.1059,3.7205 -0.4212,0.2106 0.6318,0.2808 0.6318,0.2808 l -0.2106,0.8424 -0.7722,2.8079 c 0,0 0,0.4914 0.2808,1.3337 0.2808,0.8424 -2.1762,4.5629 -2.1762,4.5629 0,0 1.1232,1.053 1.6848,1.4742 0.5616,0.4212 -1.1934,0.0702 -1.1934,0.0702 v 1.9655 l -0.702,1.053 0.6318,0.6318 -0.8424,1.1232 0.0702,1.4039 -1.1933,2.106 0.8423,0.9828 -1.6847,2.1761 c 0,0 0.4914,1.1934 0.6318,1.5444 0.1404,0.351 -0.5616,0.9827 -0.5616,0.9827 0,0 -0.68,2.4652 -0.9156,4.0552 14.0062,10.3596 31.3076,16.4983 49.9989,16.4983 z"
     style="fill:#e30016;fill-rule:evenodd"
     id="path4" />
</svg>
